<?xml version="1.0" encoding="UTF-8" standalone="no"?>
<!-- Created with Inkscape (http://www.inkscape.org/) -->

<svg
   xmlns:dc="http://purl.org/dc/elements/1.1/"
   xmlns:cc="http://creativecommons.org/ns#"
   xmlns:rdf="http://www.w3.org/1999/02/22-rdf-syntax-ns#"
   xmlns:svg="http://www.w3.org/2000/svg"
   xmlns="http://www.w3.org/2000/svg"
   xmlns:sodipodi="http://sodipodi.sourceforge.net/DTD/sodipodi-0.dtd"
   xmlns:inkscape="http://www.inkscape.org/namespaces/inkscape"
   width="672"
   height="60"
   id="svg15731"
   version="1.1"
   inkscape:version="0.48.4 r"
   sodipodi:docname="New document 7">
  <defs
     id="defs15733" />
  <sodipodi:namedview
     id="base"
     pagecolor="#ffffff"
     bordercolor="#666666"
     borderopacity="1.0"
     inkscape:pageopacity="0.0"
     inkscape:pageshadow="2"
     inkscape:zoom="7.9195959"
     inkscape:cx="95.26609"
     inkscape:cy="43.830577"
     inkscape:document-units="px"
     inkscape:current-layer="layer2"
     showgrid="false"
     width="672px"
     showguides="false"
     inkscape:window-width="1366"
     inkscape:window-height="715"
     inkscape:window-x="-8"
     inkscape:window-y="-8"
     inkscape:window-maximized="1">
    <sodipodi:guide
       position="0,0"
       orientation="0,744.09448"
       id="guide15739" />
    <sodipodi:guide
       position="744.09448,0"
       orientation="-1052.3622,0"
       id="guide15741" />
    <sodipodi:guide
       position="0,1185.7143"
       orientation="0,-744.09448"
       id="guide15743" />
    <sodipodi:guide
       position="0,1052.3622"
       orientation="1052.3622,0"
       id="guide15745" />
    <sodipodi:guide
       position="0,0"
       orientation="0,744.09448"
       id="guide15747" />
    <sodipodi:guide
       position="744.09448,0"
       orientation="-1052.3622,0"
       id="guide15749" />
    <sodipodi:guide
       position="744.09448,1052.3622"
       orientation="0,-744.09448"
       id="guide15751" />
    <sodipodi:guide
       position="0,1052.3622"
       orientation="1052.3622,0"
       id="guide15753" />
    <sodipodi:guide
       position="0,0"
       orientation="0,744.09448"
       id="guide15755" />
    <sodipodi:guide
       position="744.09448,0"
       orientation="-1052.3622,0"
       id="guide15757" />
    <sodipodi:guide
       position="744.09448,1052.3622"
       orientation="0,-744.09448"
       id="guide15759" />
    <sodipodi:guide
       position="0,1052.3622"
       orientation="1052.3622,0"
       id="guide15761" />
  </sodipodi:namedview>
  <metadata
     id="metadata15736">
    <rdf:RDF>
      <cc:Work
         rdf:about="">
        <dc:format>image/svg+xml</dc:format>
        <dc:type
           rdf:resource="http://purl.org/dc/dcmitype/StillImage" />
      </cc:Work>
    </rdf:RDF>
  </metadata>
  <g
     inkscape:label="Layer 1"
     inkscape:groupmode="layer"
     id="layer1"
     transform="translate(0,-992.36218)"
     style="display:inline">
    <rect
       style="fill:#000000;stroke:#000000;stroke-width:1;stroke-miterlimit:4;stroke-opacity:1;stroke-dasharray:none;stroke-dashoffset:0"
       id="rect15765"
       width="675.71429"
       height="12.857142"
       x="-0.71428573"
       y="51.42857"
       transform="translate(0,992.36218)" />
  </g>
  <g
     inkscape:groupmode="layer"
     id="layer2"
     inkscape:label="pyramid">
    <path
       id="path17213"
       style="fill:#000000;stroke:#790000;stroke-width:1px;stroke-linecap:butt;stroke-linejoin:miter;stroke-opacity:1;fill-opacity:1"
       d="m 91.923882,16.721277 4.577254,0.03157 m -7.904227,-6.710756 11.408201,0 0,1.344317 -11.408201,0 z m 5.7654,-7.8379321 -6.6875,8.8125001 2.1875,3.09375 c 0.37282,0.423701 1.63521,2.174578 2,2.6875 l -14.59375,12.96875 -16.4375,15.90625 4.78125,0 7.15625,-6.90625 0,0.6875 20.09375,0 0,6.21875 -27.15625,0 55.093751,0.1875 -4.53125,-0.09375 -7.375,-0.09375 -13.375001,0 0,-6.21875 18.562501,0 0,-0.3125 6.71875,6.71875 4.8125,0.03125 -15.96875,-15.96875 -13.000001,-13.0625 4.406251,-5.84375 -6.687501,-8.8125001 z m -2.5,18.7187501 c 0.477816,-0.0015 0.682739,0.002 1,0 l 0,6.40625 -7.96875,0 6.96875,-6.40625 z m 3.65625,0 c 0.36156,0.0019 0.496847,-0.0057 1.0625,0 l 6.031251,6.40625 -7.093751,0 0,-6.40625 z m -11.59375,7.28125 0,0.625 8.9375,0 0,7.875 -17.9375,0 4.65625,-4.5 4.34375,-4 z m 11.59375,0.625 8.500001,0 3.28125,3.5 4.375,4.375 -16.156251,0 0,-7.875 z" />
    <path
       sodipodi:type="star"
       style="fill:#000000;fill-opacity:1;stroke:#790000;stroke-width:1;stroke-miterlimit:4;stroke-opacity:1;stroke-dasharray:none;stroke-dashoffset:0"
       id="path17216"
       sodipodi:sides="3"
       sodipodi:cx="94.32299"
       sodipodi:cy="7.2826638"
       sodipodi:r1="2.6516504"
       sodipodi:r2="1.3258253"
       sodipodi:arg1="-1.5707963"
       sodipodi:arg2="-0.52359875"
       inkscape:flatsided="false"
       inkscape:rounded="0"
       inkscape:randomized="0"
       d="m 94.32299,4.6310134 1.148199,1.9887378 1.148198,1.9887379 -2.296397,10e-8 -2.296396,-2e-7 1.148198,-1.9887379 z"
       inkscape:transform-center-y="-0.66291258" />
  </g>
</svg>
